<svg xmlns="http://www.w3.org/2000/svg" viewBox="0 0 67.02 67.02"><defs><style>.a{fill:#e8faff;}.a,.b,.c{stroke:#1b75bb;stroke-linecap:round;stroke-miterlimit:10;stroke-width:0.75px;}.b{fill:none;}.c{fill:#eaeaa4;}</style></defs><title>EmployeeSatisfaction</title><circle class="a" cx="33.51" cy="33.51" r="33.14"/><path class="a" d="M255.42,281a20,20,0,1,1-40.1,0" transform="translate(-201.86 -246.65)"/><line class="b" x1="26.79" y1="20.54" x2="26.79" y2="30.15"/><line class="b" x1="40.23" y1="20.54" x2="40.23" y2="30.15"/><path class="c" d="M222.07,292.6a2.79,2.79,0,0,0,2.67-2.91c-.07-1.54-1.42-2.35-3-2.29,0,0-5,1.09-7.64,1.53-2,.33-3-.27-3-2.49a26.41,26.41,0,0,0-.37-6.57c-.87-3.37-5.94-3.13-5.91,0,0,5.3-1.46,8-1.22,13.82s-1.69,17.12,7.13,17.12c8,0,9.88-.06,9.88-.06,1.69-.15,3-.67,3.27-2.14a2.69,2.69,0,0,0-2.13-3.17" transform="translate(-201.86 -246.65)"/><path class="c" d="M222.07,292.6a3.55,3.55,0,0,1,3.43,3.34,3.82,3.82,0,0,1-3.68,3.38" transform="translate(-201.86 -246.65)"/><path class="c" d="M221.83,299.31a3,3,0,0,1,3,3,3.18,3.18,0,0,1-3,3.17" transform="translate(-201.86 -246.65)"/></svg>