<svg xmlns="http://www.w3.org/2000/svg" viewBox="0 0 51.55 57.88"><defs><style>.a{fill:#e8faff;}.a,.b,.c{stroke:#1b75bb;stroke-linecap:round;stroke-miterlimit:10;stroke-width:0.75px;}.b{fill:#eaeaa4;}.c{fill:#fff;}</style></defs><title>FeelConfident</title><path class="a" d="M318.3,267.81v17.82a3,3,0,0,0,3,3h0a3,3,0,0,0,3-3v-18.2A12.73,12.73,0,0,1,337,254.69h0a12.73,12.73,0,0,1,12.73,12.73v18.2a3,3,0,0,0,3,3h.18a3,3,0,0,0,3-3V267.81A18.79,18.79,0,0,0,337.1,249h0A18.79,18.79,0,0,0,318.3,267.81Z" transform="translate(-311.29 -248.64)"/><rect class="a" x="0.38" y="20.97" width="50.8" height="36.53" rx="4.03" ry="4.03"/><circle class="b" cx="25.77" cy="38.88" r="11.21"/><path class="c" d="M338.46,291.46c1.14-1.58,2.58-4.4,2.58-5.72a4,4,0,1,0-7.95,0c0,1.32,1.43,4.14,2.58,5.72a.61.61,0,0,0-.24.47.55.55,0,0,1,0,.62.55.55,0,0,1,0,.62.62.62,0,0,0,.62.62h2a.62.62,0,0,0,.62-.62.55.55,0,0,1,0-.62.55.55,0,0,1,0-.62A.61.61,0,0,0,338.46,291.46Z" transform="translate(-311.29 -248.64)"/></svg>