<svg xmlns="http://www.w3.org/2000/svg" viewBox="0 0 74.17 65.19"><defs><style>.a{fill:#e8faff;}.a,.b,.c{stroke:#1b75bb;stroke-linecap:round;stroke-miterlimit:10;stroke-width:0.75px;}.b{fill:none;}.c{fill:#eaeaa4;}</style></defs><title>OptimizeBenefitsProcess</title><path class="a" d="M334.46,171.88a28,28,0,0,0-4.21-10.18l3.82-2.6-9-9-2.59,3.81a28.05,28.05,0,0,0-10.18-4.22l.86-4.52H300.41l.86,4.52a28,28,0,0,0-10.18,4.22l-2.59-3.81-9,9,3.82,2.6a28.05,28.05,0,0,0-4.21,10.18l-4.54-.87v12.74l4.55-.87A28.05,28.05,0,0,0,283.34,193l-3.84,2.61,9,9,2.62-3.85A28,28,0,0,0,301.28,205l-.87,4.58h12.74l-.87-4.58a28.05,28.05,0,0,0,10.16-4.21l2.62,3.85,9-9L330.22,193a28,28,0,0,0,4.22-10.16l4.55.87V171Zm-27.68,11.38a5.88,5.88,0,1,1,5.88-5.87A5.88,5.88,0,0,1,306.78,183.26Z" transform="translate(-274.19 -144.79)"/><path class="a" d="M292,172.88S293,161,306.78,162" transform="translate(-274.19 -144.79)"/><polyline class="b" points="31.52 15 33.15 17.14 31.52 18.92"/><path class="b" d="M322.11,181.38s-1,11.88-14.78,10.88" transform="translate(-274.19 -144.79)"/><polyline class="b" points="34.22 49.68 32.59 47.53 34.22 45.76"/><path class="c" d="M346.14,188.24l1.71-.23-1.49-4.51-1.51.84a10.46,10.46,0,0,0-2.68-3.11l1-1.37L339,177.73l-.47,1.65a10.46,10.46,0,0,0-4.1-.3l-.22-1.7-4.51,1.49.83,1.5a10.46,10.46,0,0,0-3.11,2.69L326,182l-2.13,4.25,1.66.47a10.46,10.46,0,0,0-.3,4.1l-1.71.23,1.49,4.51,1.51-.84a10.46,10.46,0,0,0,2.69,3.1l-1.05,1.38,4.25,2.13.48-1.67a10.46,10.46,0,0,0,4.09.3l.23,1.72,4.51-1.49-.85-1.52A10.46,10.46,0,0,0,344,196l1.38,1.06,2.13-4.25-1.67-.48A10.46,10.46,0,0,0,346.14,188.24Zm-10.44,3.17a1.88,1.88,0,1,1,1.88-1.87A1.87,1.87,0,0,1,335.7,191.41Z" transform="translate(-274.19 -144.79)"/></svg>