<svg xmlns="http://www.w3.org/2000/svg" viewBox="0 0 95.37 46.92"><defs><style>.a{fill:#e8faff;}.a,.b,.c{stroke:#1b75bb;stroke-linecap:round;stroke-miterlimit:10;stroke-width:0.75px;}.b{fill:#eaeaa4;}.c{fill:#b8e8f4;}</style></defs><title>UnneccesarySpending</title><polygon class="a" points="0.4 4.03 3.84 46.52 45.97 44.02 39.97 34.52 43.47 23.52 37.97 18.02 42.97 9.03 38.95 1.02 0.4 4.03"/><polygon class="a" points="94.97 4.03 91.53 46.52 52.18 44.02 45.97 34.52 51.9 23.52 45.97 18.02 52.4 9.03 48.67 0.42 94.97 4.03"/><path class="b" d="M179.13,163.19l2.31,5.31-6.43,9,5.93,5.5L175,194l3.61,5.52a18.93,18.93,0,0,0,.52-36.34Z" transform="translate(-129.03 -159.47)"/><path class="b" d="M169,194l3.5-11-5.5-5.5,5-9-2.71-5.39a18.88,18.88,0,0,0,3.53,37Z" transform="translate(-129.03 -159.47)"/><ellipse class="b" cx="135.17" cy="169.42" rx="2.17" ry="3.25" transform="translate(-147.6 -142.83) rotate(-6.6)"/><ellipse class="b" cx="217.72" cy="169.21" rx="3.25" ry="2.17" transform="translate(-102.32 208.6) rotate(-84.01)"/><line class="c" x1="7.14" y1="27.36" x2="23.19" y2="25.36"/><line class="c" x1="8.38" y1="31.69" x2="24.43" y2="29.86"/><line class="c" x1="68.14" y1="25.36" x2="86.97" y2="26.36"/><line class="c" x1="68.14" y1="29.4" x2="86.97" y2="30.32"/></svg>